<svg width="611" height="768" viewBox="0 0 611 768" fill="none" xmlns="http://www.w3.org/2000/svg">
<rect x="1" y="4" width="602" height="752" fill="white" stroke="#A1E1FC" stroke-width="2"/>
<rect x="1" y="4" width="302" height="266" fill="#F5F5F5" stroke="#A1E1FC" stroke-width="2"/>
<rect x="301" y="4" width="302" height="350" fill="#F5F5F5" stroke="#A1E1FC" stroke-width="2"/>
<rect x="301" y="353" width="302" height="204" fill="#F5F5F5" stroke="#A1E1FC" stroke-width="2"/>
<rect x="1" y="270" width="136" height="204" fill="#F5F5F5" stroke="#A1E1FC" stroke-width="2"/>
<mask id="path-6-inside-1_2004_41" fill="white">
<path d="M302 554H604V757H134V554H136V269H302V554Z"/>
</mask>
<path d="M302 554H604V757H134V554H136V269H302V554Z" fill="#F5F5F5"/>
<path d="M302 554H300V556H302V554ZM604 554H606V552H604V554ZM604 757V759H606V757H604ZM134 757H132V759H134V757ZM134 554V552H132V554H134ZM136 554V556H138V554H136ZM136 269V267H134V269H136ZM302 269H304V267H302V269ZM302 554V556H604V554V552H302V554ZM604 554H602V757H604H606V554H604ZM604 757V755H134V757V759H604V757ZM134 757H136V554H134H132V757H134ZM134 554V556H136V554V552H134V554ZM136 554H138V269H136H134V554H136ZM136 269V271H302V269V267H136V269ZM302 269H300V554H302H304V269H302Z" fill="#A1E1FC" mask="url(#path-6-inside-1_2004_41)"/>
<rect x="1" y="472" width="136" height="94" fill="#F5F5F5" stroke="#A1E1FC" stroke-width="2"/>
<rect x="1" y="564" width="136" height="192" fill="#F5F5F5" stroke="#A1E1FC" stroke-width="2"/>
<g filter="url(#filter0_d_2004_41)">
<line x1="110" y1="5" x2="199" y2="5" stroke="#00B3FF" stroke-width="8" stroke-linecap="square"/>
</g>
<g filter="url(#filter1_d_2004_41)">
<line x1="416" y1="4" x2="505" y2="4" stroke="#00B3FF" stroke-width="8" stroke-linecap="square"/>
</g>
<g filter="url(#filter2_d_2004_41)">
<line x1="241" y1="756" x2="330" y2="756" stroke="#00B3FF" stroke-width="8" stroke-linecap="square"/>
</g>
<g filter="url(#filter3_d_2004_41)">
<line x1="441" y1="756" x2="530" y2="756" stroke="#00B3FF" stroke-width="8" stroke-linecap="square"/>
</g>
<g filter="url(#filter4_d_2004_41)">
<line x1="603" y1="407" x2="603" y2="492" stroke="#00B3FF" stroke-width="8" stroke-linecap="square"/>
</g>
<line x1="136" y1="488" x2="136" y2="543" stroke="url(#paint0_linear_2004_41)" stroke-width="8" stroke-linecap="round"/>
<line x1="302" y1="412" x2="302" y2="498" stroke="url(#paint1_linear_2004_41)" stroke-width="8" stroke-linecap="round"/>
<line x1="177" y1="270" x2="255" y2="270" stroke="#54CCFF" stroke-width="8" stroke-linecap="round"/>
<line x1="302" y1="278" x2="302" y2="332" stroke="#54CCFF" stroke-width="8" stroke-linecap="round"/>
<line x1="136" y1="392" x2="136" y2="446" stroke="#54CCFF" stroke-width="8" stroke-linecap="round"/>
<line x1="137" y1="589" x2="137" y2="643" stroke="#54CCFF" stroke-width="8" stroke-linecap="round"/>
<defs>
<filter id="filter0_d_2004_41" x="102" y="1" width="105" height="16" filterUnits="userSpaceOnUse" color-interpolation-filters="sRGB">
<feFlood flood-opacity="0" result="BackgroundImageFix"/>
<feColorMatrix in="SourceAlpha" type="matrix" values="0 0 0 0 0 0 0 0 0 0 0 0 0 0 0 0 0 0 127 0" result="hardAlpha"/>
<feOffset dy="4"/>
<feGaussianBlur stdDeviation="2"/>
<feComposite in2="hardAlpha" operator="out"/>
<feColorMatrix type="matrix" values="0 0 0 0 0 0 0 0 0 0 0 0 0 0 0 0 0 0 0.25 0"/>
<feBlend mode="normal" in2="BackgroundImageFix" result="effect1_dropShadow_2004_41"/>
<feBlend mode="normal" in="SourceGraphic" in2="effect1_dropShadow_2004_41" result="shape"/>
</filter>
<filter id="filter1_d_2004_41" x="408" y="0" width="105" height="16" filterUnits="userSpaceOnUse" color-interpolation-filters="sRGB">
<feFlood flood-opacity="0" result="BackgroundImageFix"/>
<feColorMatrix in="SourceAlpha" type="matrix" values="0 0 0 0 0 0 0 0 0 0 0 0 0 0 0 0 0 0 127 0" result="hardAlpha"/>
<feOffset dy="4"/>
<feGaussianBlur stdDeviation="2"/>
<feComposite in2="hardAlpha" operator="out"/>
<feColorMatrix type="matrix" values="0 0 0 0 0 0 0 0 0 0 0 0 0 0 0 0 0 0 0.25 0"/>
<feBlend mode="normal" in2="BackgroundImageFix" result="effect1_dropShadow_2004_41"/>
<feBlend mode="normal" in="SourceGraphic" in2="effect1_dropShadow_2004_41" result="shape"/>
</filter>
<filter id="filter2_d_2004_41" x="233" y="752" width="105" height="16" filterUnits="userSpaceOnUse" color-interpolation-filters="sRGB">
<feFlood flood-opacity="0" result="BackgroundImageFix"/>
<feColorMatrix in="SourceAlpha" type="matrix" values="0 0 0 0 0 0 0 0 0 0 0 0 0 0 0 0 0 0 127 0" result="hardAlpha"/>
<feOffset dy="4"/>
<feGaussianBlur stdDeviation="2"/>
<feComposite in2="hardAlpha" operator="out"/>
<feColorMatrix type="matrix" values="0 0 0 0 0 0 0 0 0 0 0 0 0 0 0 0 0 0 0.25 0"/>
<feBlend mode="normal" in2="BackgroundImageFix" result="effect1_dropShadow_2004_41"/>
<feBlend mode="normal" in="SourceGraphic" in2="effect1_dropShadow_2004_41" result="shape"/>
</filter>
<filter id="filter3_d_2004_41" x="433" y="752" width="105" height="16" filterUnits="userSpaceOnUse" color-interpolation-filters="sRGB">
<feFlood flood-opacity="0" result="BackgroundImageFix"/>
<feColorMatrix in="SourceAlpha" type="matrix" values="0 0 0 0 0 0 0 0 0 0 0 0 0 0 0 0 0 0 127 0" result="hardAlpha"/>
<feOffset dy="4"/>
<feGaussianBlur stdDeviation="2"/>
<feComposite in2="hardAlpha" operator="out"/>
<feColorMatrix type="matrix" values="0 0 0 0 0 0 0 0 0 0 0 0 0 0 0 0 0 0 0.25 0"/>
<feBlend mode="normal" in2="BackgroundImageFix" result="effect1_dropShadow_2004_41"/>
<feBlend mode="normal" in="SourceGraphic" in2="effect1_dropShadow_2004_41" result="shape"/>
</filter>
<filter id="filter4_d_2004_41" x="595" y="403" width="16" height="101" filterUnits="userSpaceOnUse" color-interpolation-filters="sRGB">
<feFlood flood-opacity="0" result="BackgroundImageFix"/>
<feColorMatrix in="SourceAlpha" type="matrix" values="0 0 0 0 0 0 0 0 0 0 0 0 0 0 0 0 0 0 127 0" result="hardAlpha"/>
<feOffset dy="4"/>
<feGaussianBlur stdDeviation="2"/>
<feComposite in2="hardAlpha" operator="out"/>
<feColorMatrix type="matrix" values="0 0 0 0 0 0 0 0 0 0 0 0 0 0 0 0 0 0 0.25 0"/>
<feBlend mode="normal" in2="BackgroundImageFix" result="effect1_dropShadow_2004_41"/>
<feBlend mode="normal" in="SourceGraphic" in2="effect1_dropShadow_2004_41" result="shape"/>
</filter>
<linearGradient id="paint0_linear_2004_41" x1="131.5" y1="484" x2="131.5" y2="547" gradientUnits="userSpaceOnUse">
<stop stop-color="#00B3FF"/>
<stop offset="1" stop-color="#006C99"/>
</linearGradient>
<linearGradient id="paint1_linear_2004_41" x1="297.5" y1="408" x2="297.5" y2="502" gradientUnits="userSpaceOnUse">
<stop stop-color="#00B3FF"/>
<stop offset="1" stop-color="#006C99"/>
</linearGradient>
</defs>
</svg>
