<svg width="618" height="759" viewBox="0 0 618 759" fill="none" xmlns="http://www.w3.org/2000/svg">
<rect x="8" y="3" width="602" height="752" fill="white" stroke="#A1E1FC" stroke-width="2"/>
<rect x="8" y="3" width="300" height="260" fill="#F5F5F5" stroke="#A1E1FC" stroke-width="2"/>
<rect x="306" y="3" width="304" height="260" fill="#F5F5F5" stroke="#A1E1FC" stroke-width="2"/>
<rect x="8" y="346" width="226" height="260" fill="#F5F5F5" stroke="#A1E1FC" stroke-width="2"/>
<rect x="8" y="263" width="114" height="83" fill="#F5F5F5" stroke="#A1E1FC" stroke-width="2"/>
<rect x="120" y="263" width="114" height="83" fill="#F5F5F5" stroke="#A1E1FC" stroke-width="2"/>
<rect x="384" y="263" width="114" height="83" fill="#F5F5F5" stroke="#A1E1FC" stroke-width="2"/>
<rect x="496" y="263" width="114" height="83" fill="#F5F5F5" stroke="#A1E1FC" stroke-width="2"/>
<rect x="384" y="345" width="226" height="122" fill="#F5F5F5" stroke="#A1E1FC" stroke-width="2"/>
<mask id="path-10-inside-1_5009_72" fill="white">
<path d="M385 465.412H611V756H7V604.693H233V262H385V465.412Z"/>
</mask>
<path d="M385 465.412H611V756H7V604.693H233V262H385V465.412Z" fill="#F5F5F5"/>
<path d="M385 465.412H383V467.412H385V465.412ZM611 465.412H613V463.412H611V465.412ZM611 756V758H613V756H611ZM7 756H5V758H7V756ZM7 604.693V602.693H5V604.693H7ZM233 604.693V606.693H235V604.693H233ZM233 262V260H231V262H233ZM385 262H387V260H385V262ZM385 465.412V467.412H611V465.412V463.412H385V465.412ZM611 465.412H609V756H611H613V465.412H611ZM611 756V754H7V756V758H611V756ZM7 756H9V604.693H7H5V756H7ZM7 604.693V606.693H233V604.693V602.693H7V604.693ZM233 604.693H235V262H233H231V604.693H233ZM233 262V264H385V262V260H233V262ZM385 262H383V465.412H385H387V262H385Z" fill="#A1E1FC" mask="url(#path-10-inside-1_5009_72)"/>
<g filter="url(#filter0_d_5009_72)">
<line x1="58" y1="4" x2="110" y2="4" stroke="#00B3FF" stroke-width="8" stroke-linecap="square"/>
</g>
<line x1="149" y1="264" x2="206" y2="264" stroke="#54CCFF" stroke-width="8" stroke-linecap="round"/>
<line x1="36" y1="346" x2="93" y2="346" stroke="#54CCFF" stroke-width="8" stroke-linecap="round"/>
<line x1="527" y1="263" x2="584" y2="263" stroke="#54CCFF" stroke-width="8" stroke-linecap="round"/>
<line x1="385" y1="332" x2="385" y2="275" stroke="#54CCFF" stroke-width="8" stroke-linecap="round"/>
<line x1="385" y1="434" x2="385" y2="377" stroke="#54CCFF" stroke-width="8" stroke-linecap="round"/>
<line x1="324" y1="263" x2="366" y2="263" stroke="#54CCFF" stroke-width="8" stroke-linecap="round"/>
<line x1="249" y1="263" x2="291" y2="263" stroke="#54CCFF" stroke-width="8" stroke-linecap="round"/>
<line x1="234" y1="410" x2="234" y2="368" stroke="#54CCFF" stroke-width="8" stroke-linecap="round"/>
<rect x="8" y="606" width="72" height="149" fill="#F5F5F5" stroke="#A1E1FC" stroke-width="2"/>
<line x1="79.5" y1="705.5" x2="79.5" y2="648.5" stroke="#54CCFF" stroke-width="8" stroke-linecap="round"/>
<g filter="url(#filter1_d_5009_72)">
<line x1="199" y1="4" x2="251" y2="4" stroke="#00B3FF" stroke-width="8" stroke-linecap="square"/>
</g>
<g filter="url(#filter2_d_5009_72)">
<line x1="361" y1="4" x2="413" y2="4" stroke="#00B3FF" stroke-width="8" stroke-linecap="square"/>
</g>
<g filter="url(#filter3_d_5009_72)">
<line x1="502" y1="4" x2="554" y2="4" stroke="#00B3FF" stroke-width="8" stroke-linecap="square"/>
</g>
<g filter="url(#filter4_d_5009_72)">
<line x1="8" y1="379" x2="8" y2="431" stroke="#00B3FF" stroke-width="8" stroke-linecap="square"/>
</g>
<g filter="url(#filter5_d_5009_72)">
<line x1="8" y1="520" x2="8" y2="572" stroke="#00B3FF" stroke-width="8" stroke-linecap="square"/>
</g>
<g filter="url(#filter6_d_5009_72)">
<line x1="610" y1="377" x2="610" y2="429" stroke="#00B3FF" stroke-width="8" stroke-linecap="square"/>
</g>
<g filter="url(#filter7_d_5009_72)">
<line x1="610" y1="483" x2="610" y2="535" stroke="#00B3FF" stroke-width="8" stroke-linecap="square"/>
</g>
<g filter="url(#filter8_d_5009_72)">
<line x1="610" y1="573" x2="610" y2="625" stroke="#00B3FF" stroke-width="8" stroke-linecap="square"/>
</g>
<g filter="url(#filter9_d_5009_72)">
<line x1="610" y1="664" x2="610" y2="716" stroke="#00B3FF" stroke-width="8" stroke-linecap="square"/>
</g>
<line x1="196" y1="755" x2="253" y2="755" stroke="#54CCFF" stroke-width="8" stroke-linecap="round"/>
<defs>
<filter id="filter0_d_5009_72" x="50" y="0" width="68" height="16" filterUnits="userSpaceOnUse" color-interpolation-filters="sRGB">
<feFlood flood-opacity="0" result="BackgroundImageFix"/>
<feColorMatrix in="SourceAlpha" type="matrix" values="0 0 0 0 0 0 0 0 0 0 0 0 0 0 0 0 0 0 127 0" result="hardAlpha"/>
<feOffset dy="4"/>
<feGaussianBlur stdDeviation="2"/>
<feComposite in2="hardAlpha" operator="out"/>
<feColorMatrix type="matrix" values="0 0 0 0 0 0 0 0 0 0 0 0 0 0 0 0 0 0 0.25 0"/>
<feBlend mode="normal" in2="BackgroundImageFix" result="effect1_dropShadow_5009_72"/>
<feBlend mode="normal" in="SourceGraphic" in2="effect1_dropShadow_5009_72" result="shape"/>
</filter>
<filter id="filter1_d_5009_72" x="191" y="0" width="68" height="16" filterUnits="userSpaceOnUse" color-interpolation-filters="sRGB">
<feFlood flood-opacity="0" result="BackgroundImageFix"/>
<feColorMatrix in="SourceAlpha" type="matrix" values="0 0 0 0 0 0 0 0 0 0 0 0 0 0 0 0 0 0 127 0" result="hardAlpha"/>
<feOffset dy="4"/>
<feGaussianBlur stdDeviation="2"/>
<feComposite in2="hardAlpha" operator="out"/>
<feColorMatrix type="matrix" values="0 0 0 0 0 0 0 0 0 0 0 0 0 0 0 0 0 0 0.25 0"/>
<feBlend mode="normal" in2="BackgroundImageFix" result="effect1_dropShadow_5009_72"/>
<feBlend mode="normal" in="SourceGraphic" in2="effect1_dropShadow_5009_72" result="shape"/>
</filter>
<filter id="filter2_d_5009_72" x="353" y="0" width="68" height="16" filterUnits="userSpaceOnUse" color-interpolation-filters="sRGB">
<feFlood flood-opacity="0" result="BackgroundImageFix"/>
<feColorMatrix in="SourceAlpha" type="matrix" values="0 0 0 0 0 0 0 0 0 0 0 0 0 0 0 0 0 0 127 0" result="hardAlpha"/>
<feOffset dy="4"/>
<feGaussianBlur stdDeviation="2"/>
<feComposite in2="hardAlpha" operator="out"/>
<feColorMatrix type="matrix" values="0 0 0 0 0 0 0 0 0 0 0 0 0 0 0 0 0 0 0.25 0"/>
<feBlend mode="normal" in2="BackgroundImageFix" result="effect1_dropShadow_5009_72"/>
<feBlend mode="normal" in="SourceGraphic" in2="effect1_dropShadow_5009_72" result="shape"/>
</filter>
<filter id="filter3_d_5009_72" x="494" y="0" width="68" height="16" filterUnits="userSpaceOnUse" color-interpolation-filters="sRGB">
<feFlood flood-opacity="0" result="BackgroundImageFix"/>
<feColorMatrix in="SourceAlpha" type="matrix" values="0 0 0 0 0 0 0 0 0 0 0 0 0 0 0 0 0 0 127 0" result="hardAlpha"/>
<feOffset dy="4"/>
<feGaussianBlur stdDeviation="2"/>
<feComposite in2="hardAlpha" operator="out"/>
<feColorMatrix type="matrix" values="0 0 0 0 0 0 0 0 0 0 0 0 0 0 0 0 0 0 0.25 0"/>
<feBlend mode="normal" in2="BackgroundImageFix" result="effect1_dropShadow_5009_72"/>
<feBlend mode="normal" in="SourceGraphic" in2="effect1_dropShadow_5009_72" result="shape"/>
</filter>
<filter id="filter4_d_5009_72" x="0" y="375" width="16" height="68" filterUnits="userSpaceOnUse" color-interpolation-filters="sRGB">
<feFlood flood-opacity="0" result="BackgroundImageFix"/>
<feColorMatrix in="SourceAlpha" type="matrix" values="0 0 0 0 0 0 0 0 0 0 0 0 0 0 0 0 0 0 127 0" result="hardAlpha"/>
<feOffset dy="4"/>
<feGaussianBlur stdDeviation="2"/>
<feComposite in2="hardAlpha" operator="out"/>
<feColorMatrix type="matrix" values="0 0 0 0 0 0 0 0 0 0 0 0 0 0 0 0 0 0 0.25 0"/>
<feBlend mode="normal" in2="BackgroundImageFix" result="effect1_dropShadow_5009_72"/>
<feBlend mode="normal" in="SourceGraphic" in2="effect1_dropShadow_5009_72" result="shape"/>
</filter>
<filter id="filter5_d_5009_72" x="0" y="516" width="16" height="68" filterUnits="userSpaceOnUse" color-interpolation-filters="sRGB">
<feFlood flood-opacity="0" result="BackgroundImageFix"/>
<feColorMatrix in="SourceAlpha" type="matrix" values="0 0 0 0 0 0 0 0 0 0 0 0 0 0 0 0 0 0 127 0" result="hardAlpha"/>
<feOffset dy="4"/>
<feGaussianBlur stdDeviation="2"/>
<feComposite in2="hardAlpha" operator="out"/>
<feColorMatrix type="matrix" values="0 0 0 0 0 0 0 0 0 0 0 0 0 0 0 0 0 0 0.25 0"/>
<feBlend mode="normal" in2="BackgroundImageFix" result="effect1_dropShadow_5009_72"/>
<feBlend mode="normal" in="SourceGraphic" in2="effect1_dropShadow_5009_72" result="shape"/>
</filter>
<filter id="filter6_d_5009_72" x="602" y="373" width="16" height="68" filterUnits="userSpaceOnUse" color-interpolation-filters="sRGB">
<feFlood flood-opacity="0" result="BackgroundImageFix"/>
<feColorMatrix in="SourceAlpha" type="matrix" values="0 0 0 0 0 0 0 0 0 0 0 0 0 0 0 0 0 0 127 0" result="hardAlpha"/>
<feOffset dy="4"/>
<feGaussianBlur stdDeviation="2"/>
<feComposite in2="hardAlpha" operator="out"/>
<feColorMatrix type="matrix" values="0 0 0 0 0 0 0 0 0 0 0 0 0 0 0 0 0 0 0.25 0"/>
<feBlend mode="normal" in2="BackgroundImageFix" result="effect1_dropShadow_5009_72"/>
<feBlend mode="normal" in="SourceGraphic" in2="effect1_dropShadow_5009_72" result="shape"/>
</filter>
<filter id="filter7_d_5009_72" x="602" y="479" width="16" height="68" filterUnits="userSpaceOnUse" color-interpolation-filters="sRGB">
<feFlood flood-opacity="0" result="BackgroundImageFix"/>
<feColorMatrix in="SourceAlpha" type="matrix" values="0 0 0 0 0 0 0 0 0 0 0 0 0 0 0 0 0 0 127 0" result="hardAlpha"/>
<feOffset dy="4"/>
<feGaussianBlur stdDeviation="2"/>
<feComposite in2="hardAlpha" operator="out"/>
<feColorMatrix type="matrix" values="0 0 0 0 0 0 0 0 0 0 0 0 0 0 0 0 0 0 0.25 0"/>
<feBlend mode="normal" in2="BackgroundImageFix" result="effect1_dropShadow_5009_72"/>
<feBlend mode="normal" in="SourceGraphic" in2="effect1_dropShadow_5009_72" result="shape"/>
</filter>
<filter id="filter8_d_5009_72" x="602" y="569" width="16" height="68" filterUnits="userSpaceOnUse" color-interpolation-filters="sRGB">
<feFlood flood-opacity="0" result="BackgroundImageFix"/>
<feColorMatrix in="SourceAlpha" type="matrix" values="0 0 0 0 0 0 0 0 0 0 0 0 0 0 0 0 0 0 127 0" result="hardAlpha"/>
<feOffset dy="4"/>
<feGaussianBlur stdDeviation="2"/>
<feComposite in2="hardAlpha" operator="out"/>
<feColorMatrix type="matrix" values="0 0 0 0 0 0 0 0 0 0 0 0 0 0 0 0 0 0 0.25 0"/>
<feBlend mode="normal" in2="BackgroundImageFix" result="effect1_dropShadow_5009_72"/>
<feBlend mode="normal" in="SourceGraphic" in2="effect1_dropShadow_5009_72" result="shape"/>
</filter>
<filter id="filter9_d_5009_72" x="602" y="660" width="16" height="68" filterUnits="userSpaceOnUse" color-interpolation-filters="sRGB">
<feFlood flood-opacity="0" result="BackgroundImageFix"/>
<feColorMatrix in="SourceAlpha" type="matrix" values="0 0 0 0 0 0 0 0 0 0 0 0 0 0 0 0 0 0 127 0" result="hardAlpha"/>
<feOffset dy="4"/>
<feGaussianBlur stdDeviation="2"/>
<feComposite in2="hardAlpha" operator="out"/>
<feColorMatrix type="matrix" values="0 0 0 0 0 0 0 0 0 0 0 0 0 0 0 0 0 0 0.25 0"/>
<feBlend mode="normal" in2="BackgroundImageFix" result="effect1_dropShadow_5009_72"/>
<feBlend mode="normal" in="SourceGraphic" in2="effect1_dropShadow_5009_72" result="shape"/>
</filter>
</defs>
</svg>
